<svg xmlns="http://www.w3.org/2000/svg" width="45" height="44.128" viewBox="0 0 45 44.128">
  <g id="Vrstva_206" data-name="Vrstva 206" transform="translate(0 0)">
    <path id="Path_474" data-name="Path 474" d="M39.864,8.526H37.818V7.339a6.136,6.136,0,0,0-7.81-5.891L6.578,8.143a2.046,2.046,0,0,0-.893.573A6.136,6.136,0,0,0,1,14.663V39.208a6.136,6.136,0,0,0,6.136,6.136H39.864A6.136,6.136,0,0,0,46,39.208V14.663A6.136,6.136,0,0,0,39.864,8.526Zm-8.74-3.151a2.046,2.046,0,0,1,2.6,2.053V8.616H20.145Zm10.78,23.6H35.767a2.046,2.046,0,1,1,0-4.09H41.9Zm0-8.182H36.079a6.321,6.321,0,0,0-6.342,4.992,6.136,6.136,0,0,0,6.025,7.281H41.9v6.136a2.046,2.046,0,0,1-2.046,2.046H7.136A2.046,2.046,0,0,1,5.09,39.205V14.66a2.046,2.046,0,0,1,2.046-2.046H39.864A2.046,2.046,0,0,1,41.91,14.66Z" transform="translate(-1 -1.216)" fill="#fff" fill-rule="evenodd"/>
  </g>
</svg>
